<svg xmlns="http://www.w3.org/2000/svg" viewBox="0 0 200 200" role="img">
  <!-- Derived from the client-supplied licensed Adobe Stock EPS. -->
  <g transform="translate(-271.50 607.90) scale(1 -1)">
    <path d="M359.56 598.21 C337.11 595.52 315.77 584.14 301.23 566.78 C288.56 552.14 280.91 533.29 279.66 513.97 C278.28 495.4 283.44 476.7 292.92 460.79 C303.07 444.51 318.28 431.35 336.02 424 C354.34 416.19 375.27 414.6 394.53 419.68 C414.02 424.59 431.73 436.21 444.1 452.03 C455.42 466.22 462.26 483.94 463.37 502.06 C465.08 525.59 457 549.7 441.34 567.35 C430.34 580.45 415.25 589.69 399.09 594.98 C386.37 599 372.77 599.77 359.56 598.21 M364.42 534.5 C379.2 538.8 396 528.27 398.45 513.07 C401.46 499.55 392.29 484.78 378.86 481.44 C366.71 477.79 352.97 484.18 347.15 495.25 C342.45 504.15 343.15 515.75 349.2 523.84 C353 528.85 358.25 532.95 364.42 534.5 M367.18 524.8 C358.97 522.77 353.18 514.21 354.37 505.83 C355.22 496.14 365.46 488.56 374.99 490.83 C384.33 492.52 390.71 502.8 388.39 511.95 C386.59 521.23 376.16 527.21 367.18 524.8" fill="#6f5665" fill-rule="nonzero"/>
    <path d="M359.56 598.21 C372.77 599.77 386.37 599 399.09 594.98 C415.25 589.69 430.34 580.45 441.34 567.35 C457 549.7 465.08 525.59 463.37 502.06 C462.26 483.94 455.42 466.22 444.1 452.03 C431.73 436.21 414.02 424.59 394.53 419.68 C375.27 414.6 354.34 416.19 336.02 424 C318.28 431.35 303.07 444.51 292.92 460.79 C283.44 476.7 278.28 495.4 279.66 513.97 C280.91 533.29 288.56 552.14 301.23 566.78 C315.77 584.14 337.11 595.52 359.56 598.21 M339.9 559.69 C334.22 558.48 328.96 555.28 325.21 550.84 C320.66 545.3 318.59 538.12 318.23 531.05 C317.52 519.7 317.98 508.33 317.84 496.97 C317.86 486.96 317.78 476.15 323.47 467.44 C328.27 459.73 337.32 455.64 346.16 455.06 C352.75 454.24 359.42 454.61 366.05 454.51 C375.62 454.61 385.22 454.15 394.77 454.97 C402.67 455.16 410.84 457.72 416.49 463.46 C422.34 469.44 424.76 477.97 425.02 486.15 C425.51 499.98 425.44 513.85 424.99 527.68 C425 533.74 423.96 539.91 421.38 545.43 C418 552.66 410.93 557.92 403.24 559.7 C393.06 562.36 382.4 561.08 372 561.41 C361.31 561.11 350.37 562.43 339.9 559.69 M343.43 550.31 C354.85 552.19 366.52 551.12 378.05 551.4 C386.63 551.03 395.69 552.33 403.8 548.85 C410.58 545.75 414.26 538.31 414.65 531.12 C415.41 519.1 415.07 507.05 415.07 495.01 C414.76 488.29 415.31 481.12 412.12 474.94 C409.59 470.16 404.82 466.61 399.48 465.69 C391.4 464.25 383.15 464.61 374.98 464.51 C365.97 464.61 356.93 464.26 347.94 465.05 C341.95 465.58 335.71 467.98 332.2 473.1 C328.5 478.25 328.36 484.87 328.21 490.95 C328.17 502.99 328.1 515.02 328.3 527.05 C328.46 532.5 328.83 538.38 332.1 542.97 C334.75 546.78 338.91 549.36 343.43 550.31 M396.31 541.66 C392.01 539.45 391.97 532.38 396.42 530.29 C400.21 527.94 405.62 530.55 406.21 534.96 C406.96 540.07 400.8 544.36 396.31 541.66 M364.42 534.5 C358.25 532.95 353 528.85 349.2 523.84 C343.15 515.75 342.45 504.15 347.15 495.25 C352.97 484.18 366.71 477.79 378.86 481.44 C392.29 484.78 401.46 499.55 398.45 513.07 C396 528.27 379.2 538.8 364.42 534.5" fill="#ffffff" fill-rule="nonzero"/>
    <path d="M339.9 559.69 C350.37 562.43 361.31 561.11 372 561.41 C382.4 561.08 393.06 562.36 403.24 559.7 C396.51 558.74 389.77 559.95 383.03 560.03 C372.35 559.91 361.65 560.28 351 559.39 C347.3 559.09 343.59 559.41 339.9 559.69 Z" fill="#6f5665" fill-rule="nonzero"/>
    <path d="M325.21 550.84 C328.96 555.28 334.22 558.48 339.9 559.69 C343.59 559.41 347.3 559.09 351 559.39 C361.65 560.28 372.35 559.91 383.03 560.03 C389.77 559.95 396.51 558.74 403.24 559.7 C410.93 557.92 418 552.66 421.38 545.43 C423.96 539.91 425 533.74 424.99 527.68 C423.03 518.57 424.35 509.26 423.93 500.05 C423.73 495.39 424.25 490.75 425.02 486.15 C424.76 477.97 422.34 469.44 416.49 463.46 C410.84 457.72 402.67 455.16 394.77 454.97 C385.27 456.75 375.58 455.78 365.98 455.97 C359.36 456.11 352.71 456.15 346.16 455.06 C337.32 455.64 328.27 459.73 323.47 467.44 C317.78 476.15 317.86 486.96 317.84 496.97 C317.98 508.33 317.52 519.7 318.23 531.05 C318.59 538.12 320.66 545.3 325.21 550.84 M343.43 550.31 C338.91 549.36 334.75 546.78 332.1 542.97 C328.83 538.38 328.46 532.5 328.3 527.05 C328.1 515.02 328.17 502.99 328.21 490.95 C328.36 484.87 328.5 478.25 332.2 473.1 C335.71 467.98 341.95 465.58 347.94 465.05 C356.93 464.26 365.97 464.61 374.98 464.51 C383.15 464.61 391.4 464.25 399.48 465.69 C404.82 466.61 409.59 470.16 412.12 474.94 C415.31 481.12 414.76 488.29 415.07 495.01 C415.07 507.05 415.41 519.1 414.65 531.12 C414.26 538.31 410.58 545.75 403.8 548.85 C395.69 552.33 386.63 551.03 378.05 551.4 C366.52 551.12 354.85 552.19 343.43 550.31 Z" fill="#6f5665" fill-rule="nonzero"/>
    <path d="M367.18 524.8 C376.16 527.21 386.59 521.23 388.39 511.95 C390.71 502.8 384.33 492.52 374.99 490.83 C365.46 488.56 355.22 496.14 354.37 505.83 C353.18 514.21 358.97 522.77 367.18 524.8 Z" fill="#ffffff" fill-rule="nonzero"/>
    <path d="M396.31 541.66 C400.8 544.36 406.96 540.07 406.21 534.96 C405.62 530.55 400.21 527.94 396.42 530.29 C391.97 532.38 392.01 539.45 396.31 541.66" fill="#6f5665" fill-rule="nonzero"/>
    <path d="M423.93 500.05 C424.35 509.26 423.03 518.57 424.99 527.68 C425.44 513.85 425.51 499.98 425.02 486.15 C424.25 490.75 423.73 495.39 423.93 500.05 Z" fill="#6f5665" fill-rule="nonzero"/>
    <path d="M346.16 455.06 C352.71 456.15 359.36 456.11 365.98 455.97 C375.58 455.78 385.27 456.75 394.77 454.97 C385.22 454.15 375.62 454.61 366.05 454.51 C359.42 454.61 352.75 454.24 346.16 455.06 Z" fill="#6f5665" fill-rule="nonzero"/>
  </g>
</svg>
