<svg xmlns="http://www.w3.org/2000/svg" viewBox="0 0 200 200" role="img" aria-label="YouTube">
  <circle cx="100" cy="100" r="88" fill="#6f5665"/>
  <path d="M152 72.7c-1.8-9.4-9.2-16.8-18.6-18.6C121.6 52 100 52 100 52s-21.6 0-33.4 2.1C57.2 55.9 49.8 63.3 48 72.7 45.9 84.5 45.9 100 45.9 100s0 15.5 2.1 27.3c1.8 9.4 9.2 16.8 18.6 18.6C78.4 148 100 148 100 148s21.6 0 33.4-2.1c9.4-1.8 16.8-9.2 18.6-18.6 2.1-11.8 2.1-27.3 2.1-27.3s0-15.5-2.1-27.3Z" fill="#fff"/>
  <path d="m89 79.8 31.5 20.2L89 120.2V79.8Z" fill="#6f5665"/>
</svg>
