<svg xmlns="http://www.w3.org/2000/svg" viewBox="0 0 200 200" role="img">
  <!-- Derived from the client-supplied licensed Adobe Stock EPS. -->
  <g transform="translate(-1115.40 607.90) scale(1 -1)">
    <path d="M1203.52 598.23 C1184.07 596.04 1165.65 586.89 1151.49 573.47 C1128.92 552.38 1118.54 519.06 1125.47 488.9 C1131.35 461.82 1150.33 438.17 1175.27 426.18 C1196.27 415.63 1221.38 413.87 1243.71 421.13 C1260.62 426.6 1275.75 437.22 1286.94 450.99 C1298.26 464.88 1305.22 482.16 1306.99 499.96 C1310.35 534.63 1291.63 570.33 1261.06 587.08 C1243.79 596.98 1223.23 600.92 1203.52 598.23 M1177.52 542.44 C1190.01 560.3 1215.42 565.98 1235.26 558.26 C1243.27 555 1250.47 549.49 1254.9 541.96 C1261.86 531.14 1262.04 517.26 1258.57 505.2 C1255.05 493.1 1245.65 482.08 1233.05 479.15 C1224.72 477.01 1215.08 479.01 1209.32 485.7 C1206.97 475.9 1205.58 465.54 1200.14 456.84 C1197.74 452.96 1194.91 449.35 1191.71 446.11 C1190.14 453.97 1189.34 462.16 1190.42 470.14 C1192.72 482.54 1196.59 494.6 1198.92 506.99 C1198.74 511.03 1196.74 514.87 1197.1 519.01 C1197.09 525.24 1200.14 532.27 1206.35 534.52 C1210.77 536.4 1216.95 534.43 1218.44 529.59 C1220.45 523.28 1217.81 516.82 1216.2 510.73 C1214.84 505.87 1212.34 500.21 1215.33 495.46 C1218.2 490.81 1224.5 489.47 1229.33 491.73 C1236.97 495.05 1240.85 503.27 1242.75 510.94 C1244.97 520.62 1244.68 532.01 1237.79 539.83 C1227.5 551.95 1207.49 552.02 1195.54 542.36 C1186.77 535.65 1182.42 523.68 1185.01 512.93 C1185.76 509.54 1187.96 506.77 1189.58 503.76 C1189.51 500.24 1188.27 496.8 1187.2 493.46 C1179.23 494.71 1173.45 501.83 1171.54 509.33 C1168.66 520.51 1170.73 533.03 1177.52 542.44" fill="#6f5665" fill-rule="nonzero"/>
    <path d="M1203.52 598.23 C1223.23 600.92 1243.79 596.98 1261.06 587.08 C1291.63 570.33 1310.35 534.63 1306.99 499.96 C1305.22 482.16 1298.26 464.88 1286.94 450.99 C1275.75 437.22 1260.62 426.6 1243.71 421.13 C1221.38 413.87 1196.27 415.63 1175.27 426.18 C1150.33 438.17 1131.35 461.82 1125.47 488.9 C1118.54 519.06 1128.92 552.38 1151.49 573.47 C1165.65 586.89 1184.07 596.04 1203.52 598.23 M1177.52 542.44 C1170.73 533.03 1168.66 520.51 1171.54 509.33 C1173.45 501.83 1179.23 494.71 1187.2 493.46 C1188.27 496.8 1189.51 500.24 1189.58 503.76 C1187.96 506.77 1185.76 509.54 1185.01 512.93 C1182.42 523.68 1186.77 535.65 1195.54 542.36 C1207.49 552.02 1227.5 551.95 1237.79 539.83 C1244.68 532.01 1244.97 520.62 1242.75 510.94 C1240.85 503.27 1236.97 495.05 1229.33 491.73 C1224.5 489.47 1218.2 490.81 1215.33 495.46 C1212.34 500.21 1214.84 505.87 1216.2 510.73 C1217.81 516.82 1220.45 523.28 1218.44 529.59 C1216.95 534.43 1210.77 536.4 1206.35 534.52 C1200.14 532.27 1197.09 525.24 1197.1 519.01 C1196.74 514.87 1198.74 511.03 1198.92 506.99 C1196.59 494.6 1192.72 482.54 1190.42 470.14 C1189.34 462.16 1190.14 453.97 1191.71 446.11 C1194.91 449.35 1197.74 452.96 1200.14 456.84 C1205.58 465.54 1206.97 475.9 1209.32 485.7 C1215.08 479.01 1224.72 477.01 1233.05 479.15 C1245.65 482.08 1255.05 493.1 1258.57 505.2 C1262.04 517.26 1261.86 531.14 1254.9 541.96 C1250.47 549.49 1243.27 555 1235.26 558.26 C1215.42 565.98 1190.01 560.3 1177.52 542.44" fill="#ffffff" fill-rule="nonzero"/>
  </g>
</svg>
