<svg xmlns="http://www.w3.org/2000/svg" viewBox="0 0 200 200" role="img">
  <!-- Derived from the client-supplied licensed Adobe Stock EPS. -->
  <g transform="translate(-904.40 607.90) scale(1 -1)">
    <path d="M992.55 598.23 C963.59 594.88 936.82 576.51 923.24 550.71 C913 532.07 909.92 509.68 914.5 488.93 C920.94 458.28 944.71 432.34 974.1 421.99 C993.31 415.1 1014.88 415.01 1034.19 421.59 C1061.16 430.67 1083.25 452.95 1092.07 480.01 C1096.44 493.65 1097.56 508.31 1095.28 522.45 C1091.02 550.08 1073.12 575.33 1048.27 588.22 C1031.44 597.52 1011.53 600.57 992.55 598.23 M1007.18 561.28 C1013.48 561.35 1019.79 561.3 1026.1 561.37 C1026.68 555.13 1028.9 548.87 1033.37 544.35 C1038.22 539.27 1045.09 536.18 1052.12 536 C1050.05 529.69 1052.24 522.85 1049.78 516.64 C1041.32 517.3 1033.08 520.06 1026.18 525.02 L1026.13 524.82 C1023.74 517.07 1025.33 508.94 1025 501 C1024.74 495.04 1024.94 489.06 1025.92 483.17 C1024.41 469.07 1012.71 457.05 998.84 454.54 C987.54 452.2 975.16 455.81 967.1 464.1 C962.15 469.28 958.4 475.8 957.28 482.93 C955.55 491.84 958.01 501.28 963.36 508.54 C970.71 519.16 984.54 524.48 997.17 522.34 C997.04 515.84 997.08 509.35 997.17 502.85 C992.43 503.79 987.18 503.82 983.1 500.89 C976.53 496.75 974.21 487.19 978.72 480.72 C983.61 472.2 996.91 471.47 1003.24 478.7 C1006.15 481.7 1007.33 485.93 1007.2 490.04 C1007.2 513.79 1007.19 537.54 1007.18 561.28" fill="#6f5665" fill-rule="nonzero"/>
    <path d="M992.55 598.23 C1011.53 600.57 1031.44 597.52 1048.27 588.22 C1073.12 575.33 1091.02 550.08 1095.28 522.45 C1097.56 508.31 1096.44 493.65 1092.07 480.01 C1083.25 452.95 1061.16 430.67 1034.19 421.59 C1014.88 415.01 993.31 415.1 974.1 421.99 C944.71 432.34 920.94 458.28 914.5 488.93 C909.92 509.68 913 532.07 923.24 550.71 C936.82 576.51 963.59 594.88 992.55 598.23 M1007.18 561.28 C1007.19 537.54 1007.2 513.79 1007.2 490.04 C1007.33 485.93 1006.15 481.7 1003.24 478.7 C996.91 471.47 983.61 472.2 978.72 480.72 C974.21 487.19 976.53 496.75 983.1 500.89 C987.18 503.82 992.43 503.79 997.17 502.85 C997.08 509.35 997.04 515.84 997.17 522.34 C984.54 524.48 970.71 519.16 963.36 508.54 C958.01 501.28 955.55 491.84 957.28 482.93 C958.4 475.8 962.15 469.28 967.1 464.1 C975.16 455.81 987.54 452.2 998.84 454.54 C1012.71 457.05 1024.41 469.07 1025.92 483.17 C1026.6 497.02 1026.32 510.95 1026.13 524.82 L1026.18 525.02 C1033.08 520.06 1041.32 517.3 1049.78 516.64 C1050.43 516.64 1051.74 516.66 1052.4 516.66 C1052.14 523.11 1052.58 529.57 1052.12 536 C1045.09 536.18 1038.22 539.27 1033.37 544.35 C1028.9 548.87 1026.68 555.13 1026.1 561.37 C1019.79 561.3 1013.48 561.35 1007.18 561.28" fill="#ffffff" fill-rule="nonzero"/>
    <path d="M1049.78 516.64 C1052.24 522.85 1050.05 529.69 1052.12 536 C1052.58 529.57 1052.14 523.11 1052.4 516.66 C1051.74 516.66 1050.43 516.64 1049.78 516.64 Z" fill="#6f5665" fill-rule="nonzero"/>
    <path d="M1025 501 C1025.33 508.94 1023.74 517.07 1026.13 524.82 C1026.32 510.95 1026.6 497.02 1025.92 483.17 C1024.94 489.06 1024.74 495.04 1025 501 Z" fill="#6f5665" fill-rule="nonzero"/>
  </g>
</svg>
